<?xml version="1.0" encoding="UTF-8"?>
<svg xmlns="http://www.w3.org/2000/svg" xmlns:xlink="http://www.w3.org/1999/xlink" viewBox="0 0 497 497">
  <defs>
    <style>
      .cls-1 {
        fill: #f6a8c0;
      }

      .cls-2 {
        fill: #f492b1;
      }

      .cls-3 {
        fill: #f7b0c6;
      }

      .cls-4 {
        fill: #f8bed0;
      }

      .cls-5 {
        fill: #fef5f9;
      }

      .cls-6 {
        clip-path: url(#clippath-4);
      }

      .cls-7 {
        fill: #f8b8cc;
      }

      .cls-8 {
        fill: #f9c1d3;
      }

      .cls-9 {
        fill: #f5a0bb;
      }

      .cls-10 {
        fill: #f9c0d1;
      }

      .cls-11 {
        fill: #f59ab6;
      }

      .cls-12 {
        fill: #f59bb6;
      }

      .cls-13 {
        fill: #f497b4;
      }

      .cls-14 {
        fill: #f7b2c8;
      }

      .cls-15 {
        fill: #f7b1c7;
      }

      .cls-16 {
        fill: #fff;
      }

      .cls-17 {
        fill: #f9c4d4;
      }

      .cls-18 {
        fill: #f7b5ca;
      }

      .cls-19 {
        fill: #f6abc2;
      }

      .cls-20 {
        fill: #f7adc4;
      }

      .cls-21 {
        fill: #f8bdd0;
      }

      .cls-22 {
        fill: #f48cab;
      }

      .cls-23 {
        fill: #f494b2;
      }

      .cls-24 {
        fill: none;
      }

      .cls-25 {
        fill: #f495b3;
      }

      .cls-26 {
        fill: #f8bacd;
      }

      .cls-27 {
        fill: #f498b4;
      }

      .cls-28 {
        clip-path: url(#clippath-1);
      }

      .cls-29 {
        fill: #fff8f8;
      }

      .cls-30 {
        isolation: isolate;
      }

      .cls-31 {
        fill: #f490af;
      }

      .cls-32 {
        fill: #fac9d8;
      }

      .cls-33 {
        fill: #f6a2bd;
      }

      .cls-34 {
        fill: #f496b3;
      }

      .cls-35 {
        fill: #f9c2d4;
      }

      .cls-36 {
        clip-path: url(#clippath-3);
      }

      .cls-37 {
        fill: #f8bcce;
      }

      .cls-38 {
        fill: #f9c6d6;
      }

      .cls-39 {
        fill: #f491af;
      }

      .cls-40 {
        fill: #f9c7d8;
      }

      .cls-41 {
        fill: #f8bbcf;
      }

      .cls-42 {
        fill: #f9c8d7;
      }

      .cls-43 {
        fill: #f6a3bd;
      }

      .cls-44 {
        fill: #f59fba;
      }

      .cls-45 {
        fill: #f59eb9;
      }

      .cls-46 {
        mix-blend-mode: multiply;
      }

      .cls-47 {
        fill: #f8bfd2;
      }

      .cls-48 {
        fill: #f598b5;
      }

      .cls-49 {
        fill: #f48ead;
      }

      .cls-50 {
        fill: #f9c3d5;
      }

      .cls-51 {
        fill: #f7acc3;
      }

      .cls-52 {
        fill: #f9c5d6;
      }

      .cls-53 {
        fill: #f48fae;
      }

      .cls-54 {
        fill: #f8b7cb;
      }

      .cls-55 {
        fill: #f5a2bc;
      }

      .cls-56 {
        clip-path: url(#clippath-2);
      }

      .cls-57 {
        fill: #f493b1;
      }

      .cls-58 {
        fill: #f6a7bf;
      }

      .cls-59 {
        fill: #f59bb7;
      }

      .cls-60 {
        fill: #f6a9c1;
      }

      .cls-61 {
        fill: #f7b4c9;
      }

      .cls-62 {
        fill: #f7afc5;
      }

      .cls-63 {
        fill: #f59eba;
      }

      .cls-64 {
        fill: #f7b3c8;
      }

      .cls-65 {
        fill: #f7b6cb;
      }

      .cls-66 {
        clip-path: url(#clippath);
      }

      .cls-67 {
        fill: #f48dac;
      }

      .cls-68 {
        fill: #f59db9;
      }

      .cls-69 {
        fill: #f06597;
      }

      .cls-70 {
        fill: #f6a5bf;
      }
    </style>
    <clipPath id="clippath">
      <path class="cls-24" d="M318.72,103.83c-10.68-36.21-46.96-78.54-70.44-43.44,0,0,0,0,0-.01h0s-.06,0-.06.01c-1.93-4.91-12.09-15.56-22.78-12.86-36.05,8.39-59.1,65.37-51.3,107.05,5.59,31.95,24.4,50.22,43.31,69.07,11.1,11.06,28.08,36.72,30.83,36.65,2.75-.08,22.98-28.81,35.61-41.49,30.74-25.14,50.4-75.46,34.84-114.97Z"/>
    </clipPath>
    <clipPath id="clippath-1">
      <path class="cls-24" d="M121.08,145.13c-37.74-1.03-89.21,20.39-63.08,53.57h0s-.02.06-.01.07c-5.27.32-18.53,6.69-19.27,17.69-3.16,36.87,43.91,76.41,85.96,81.87,32.11,4.56,55.3-7.69,79.07-19.85,13.95-7.13,43.6-15.36,44.38-18,.78-2.64-20.3-30.76-28.46-46.69-14.41-37.01-56.19-71.25-98.58-68.66Z"/>
    </clipPath>
    <clipPath id="clippath-2">
      <path class="cls-24" d="M99.53,345.63c-12.64,35.58-8.18,91.14,31.46,76.55,0,0,0,0,0,0h0s.05.03.06.03c-1.33,5.11.64,19.7,10.87,23.79,34.09,14.4,86.24-18.15,104.42-56.45,14.26-29.13,9.78-54.97,5.56-81.33-2.48-15.47-1.13-46.22-3.4-47.77-2.27-1.56-35.53,9.8-53.2,12.64-39.65,2.27-85.12,31.43-95.76,72.54Z"/>
    </clipPath>
    <clipPath id="clippath-3">
      <path class="cls-24" d="M282.83,428.51c29.93,23.01,84.15,35.94,82.52-6.26,0,0,0,0,0,0,0,0,.05-.05.05-.05,4.45,2.84,18.93,5.48,25.99-2.99,24.23-27.97,9.39-87.63-21.42-116.75-23.3-22.56-49.26-26.28-75.64-30.42-15.48-2.42-44.3-13.21-46.48-11.53-2.18,1.68-1.65,36.82-4.42,54.5-10.09,38.41,3.58,90.67,39.39,113.49Z"/>
    </clipPath>
    <clipPath id="clippath-4">
      <path class="cls-24" d="M418.94,279.24c31.14-21.35,60.19-68.93,19.55-80.42,0,0,0,0,0,0h0s-.02-.06-.03-.06c4.07-3.36,11.06-16.31,5.19-25.64-19.12-31.69-80.43-36.01-117.66-15.71-28.65,15.18-40.22,38.72-52.3,62.53-7.09,13.97-26.25,38.05-25.33,40.65.93,2.59,34.5,12.95,50.47,21.05,33.41,21.46,87.33,24.61,120.11-2.4Z"/>
    </clipPath>
  </defs>
  <g class="cls-30">
    <g id="Layer_2">
      <g id="Layer_1-2" data-name="Layer_1">
        <g>
          <g>
            <circle class="cls-69" cx="248.5" cy="248.5" r="248.5"/>
            <circle class="cls-5" cx="248.5" cy="248.5" r="238.1"/>
          </g>
          <g>
            <path class="cls-16" d="M121.08,145.13c-37.74-1.03-89.21,20.39-63.08,53.57h0s-.02.06-.01.07c-5.27.32-18.53,6.69-19.27,17.69-3.16,36.87,43.91,76.41,85.96,81.87,32.11,4.56,55.3-7.69,79.07-19.85,13.95-7.13,43.6-15.36,44.38-18,.78-2.64-20.3-30.76-28.46-46.69-14.41-37.01-56.19-71.25-98.58-68.66Z"/>
            <path class="cls-16" d="M99.53,345.63c-12.64,35.58-8.18,91.14,31.46,76.55,0,0,0,0,0,0h0s.05.03.06.03c-1.33,5.11.64,19.7,10.87,23.79,34.09,14.4,86.24-18.15,104.42-56.45,14.26-29.13,9.78-54.97,5.56-81.33-2.48-15.47-1.13-46.22-3.4-47.77-2.27-1.56-35.53,9.8-53.2,12.64-39.65,2.27-85.12,31.43-95.76,72.54Z"/>
            <path class="cls-16" d="M282.83,428.51c29.93,23.01,84.15,35.94,82.52-6.26,0,0,0,0,0,0,0,0,.05-.05.05-.05,4.45,2.84,18.93,5.48,25.99-2.99,24.23-27.97,9.39-87.63-21.42-116.75-23.3-22.56-49.26-26.28-75.64-30.42-15.48-2.42-44.3-13.21-46.48-11.53-2.18,1.68-1.65,36.82-4.42,54.5-10.09,38.41,3.58,90.67,39.39,113.49Z"/>
            <path class="cls-16" d="M418.94,279.24c31.14-21.35,60.19-68.93,19.55-80.42,0,0,0,0,0,0h0s-.02-.06-.03-.06c4.07-3.36,11.06-16.31,5.19-25.64-19.12-31.69-80.43-36.01-117.66-15.71-28.65,15.18-40.22,38.72-52.3,62.53-7.09,13.97-26.25,38.05-25.33,40.65.93,2.59,34.5,12.95,50.47,21.05,33.41,21.46,87.33,24.61,120.11-2.4Z"/>
            <g class="cls-66">
              <rect class="cls-22" x="170.55" y="258.77" width="155" height="2"/>
              <rect class="cls-67" x="170.55" y="256.77" width="155" height="2"/>
              <rect class="cls-49" x="170.55" y="254.77" width="155" height="2"/>
              <rect class="cls-53" x="170.55" y="252.77" width="155" height="2"/>
              <rect class="cls-31" x="170.55" y="250.77" width="155" height="2"/>
              <rect class="cls-39" x="170.55" y="248.77" width="155" height="2"/>
              <rect class="cls-2" x="170.55" y="246.77" width="155" height="2"/>
              <rect class="cls-57" x="170.55" y="244.77" width="155" height="2"/>
              <rect class="cls-23" x="170.55" y="242.77" width="155" height="2"/>
              <rect class="cls-25" x="170.55" y="240.77" width="155" height="2"/>
              <rect class="cls-34" x="170.55" y="238.77" width="155" height="2"/>
              <rect class="cls-13" x="170.55" y="236.77" width="155" height="2"/>
              <rect class="cls-27" x="170.55" y="234.77" width="155" height="2"/>
              <rect class="cls-48" x="170.55" y="233.77" width="155" height="1"/>
              <rect class="cls-11" x="170.55" y="231.77" width="155" height="2"/>
              <rect class="cls-12" x="170.55" y="229.77" width="155" height="2"/>
              <rect class="cls-59" x="170.55" y="227.77" width="155" height="2"/>
              <rect class="cls-68" x="170.55" y="225.77" width="155" height="2"/>
              <rect class="cls-63" x="170.55" y="223.77" width="155" height="2"/>
              <rect class="cls-45" x="170.55" y="221.77" width="155" height="2"/>
              <rect class="cls-44" x="170.55" y="219.77" width="155" height="2"/>
              <rect class="cls-9" x="170.55" y="217.77" width="155" height="2"/>
              <rect class="cls-55" x="170.55" y="215.77" width="155" height="2"/>
              <rect class="cls-33" x="170.55" y="213.77" width="155" height="2"/>
              <rect class="cls-43" x="170.55" y="211.77" width="155" height="2"/>
              <rect class="cls-70" x="170.55" y="209.77" width="155" height="2"/>
              <rect class="cls-70" x="170.55" y="207.77" width="155" height="2"/>
              <rect class="cls-58" x="170.55" y="206.77" width="155" height="1"/>
              <rect class="cls-1" x="170.55" y="204.77" width="155" height="2"/>
              <rect class="cls-60" x="170.55" y="202.77" width="155" height="2"/>
              <rect class="cls-19" x="170.55" y="200.77" width="155" height="2"/>
              <rect class="cls-19" x="170.55" y="198.77" width="155" height="2"/>
              <rect class="cls-51" x="170.55" y="196.77" width="155" height="2"/>
              <rect class="cls-20" x="170.55" y="194.77" width="155" height="2"/>
              <rect class="cls-62" x="170.55" y="192.77" width="155" height="2"/>
              <rect class="cls-62" x="170.55" y="190.77" width="155" height="2"/>
              <rect class="cls-3" x="170.55" y="188.77" width="155" height="2"/>
              <rect class="cls-15" x="170.55" y="186.77" width="155" height="2"/>
              <rect class="cls-14" x="170.55" y="184.77" width="155" height="2"/>
              <rect class="cls-64" x="170.55" y="182.77" width="155" height="2"/>
              <rect class="cls-61" x="170.55" y="180.77" width="155" height="2"/>
              <rect class="cls-18" x="170.55" y="179.77" width="155" height="1"/>
              <rect class="cls-65" x="170.55" y="177.77" width="155" height="2"/>
              <rect class="cls-54" x="170.55" y="175.77" width="155" height="2"/>
              <rect class="cls-7" x="170.55" y="173.77" width="155" height="2"/>
              <rect class="cls-26" x="170.55" y="171.77" width="155" height="2"/>
              <rect class="cls-41" x="170.55" y="169.77" width="155" height="2"/>
              <rect class="cls-37" x="170.55" y="167.77" width="155" height="2"/>
              <rect class="cls-21" x="170.55" y="165.77" width="155" height="2"/>
              <rect class="cls-4" x="170.55" y="163.77" width="155" height="2"/>
              <rect class="cls-47" x="170.55" y="161.77" width="155" height="2"/>
              <rect class="cls-10" x="170.55" y="159.77" width="155" height="2"/>
              <rect class="cls-8" x="170.55" y="157.77" width="155" height="2"/>
              <rect class="cls-35" x="170.55" y="155.77" width="155" height="2"/>
              <rect class="cls-50" x="170.55" y="154.77" width="155" height="1"/>
              <rect class="cls-17" x="170.55" y="152.77" width="155" height="2"/>
              <rect class="cls-52" x="170.55" y="150.77" width="155" height="2"/>
              <rect class="cls-38" x="170.55" y="148.77" width="155" height="2"/>
              <rect class="cls-40" x="170.55" y="146.77" width="155" height="2"/>
              <rect class="cls-42" x="170.55" y="144.77" width="155" height="2"/>
              <rect class="cls-32" x="170.55" y="142.77" width="155" height="2"/>
              <rect class="cls-32" x="170.55" y="44.77" width="155" height="98"/>
            </g>
            <g class="cls-46">
              <g class="cls-28">
                <polygon class="cls-22" points="231.84 302.77 248.55 258.47 248.55 302.77 231.84 302.77"/>
                <path class="cls-22" d="M229.76,302.77l18.79-49.71c2.59,2.53-15.98,46.56-16.71,49.71h-2.07Z"/>
                <path class="cls-67" d="M227.69,302.77l20.86-55.1c3.01,1.41-18.27,52.56-18.79,55.1h-2.07Z"/>
                <path class="cls-49" d="M225.62,302.77l22.93-60.5c3.08,1.53-20.4,57.94-20.86,60.5h-2.07Z"/>
                <path class="cls-53" d="M223.55,302.77l25-65.9c3.35.6-22.63,63.92-22.93,65.9h-2.07Z"/>
                <polygon class="cls-31" points="221.48 302.77 248.55 231.48 248.55 236.88 223.55 302.77 221.48 302.77"/>
                <polygon class="cls-39" points="219.4 302.77 248.55 226.08 248.55 231.48 221.48 302.77 219.4 302.77"/>
                <polygon class="cls-2" points="217.33 302.77 248.55 220.69 248.55 226.08 219.4 302.77 217.33 302.77"/>
                <polygon class="cls-57" points="215.26 302.77 248.55 215.29 248.55 220.69 217.33 302.77 215.26 302.77"/>
                <polygon class="cls-23" points="213.19 302.77 248.55 209.89 248.55 215.29 215.26 302.77 213.19 302.77"/>
                <polygon class="cls-25" points="211.12 302.77 248.55 204.49 248.55 209.89 213.19 302.77 211.12 302.77"/>
                <polygon class="cls-34" points="209.05 302.77 248.55 199.1 248.55 204.49 211.12 302.77 209.05 302.77"/>
                <polygon class="cls-13" points="206.97 302.77 248.55 193.7 248.55 199.1 209.05 302.77 206.97 302.77"/>
                <polygon class="cls-27" points="204.9 302.77 248.55 188.3 248.55 193.7 206.97 302.77 204.9 302.77"/>
                <polygon class="cls-48" points="202.83 302.77 248.7 182.9 248.55 182.97 248.55 188.3 204.9 302.77 202.83 302.77"/>
                <polygon class="cls-11" points="200.76 302.77 247.06 182.21 248.87 182.88 202.83 302.77 200.76 302.77"/>
                <polygon class="cls-12" points="198.69 302.77 245.25 181.52 247.06 182.18 200.76 302.77 198.69 302.77"/>
                <polygon class="cls-59" points="196.61 302.77 243.45 180.82 245.25 181.49 198.69 302.77 196.61 302.77"/>
                <polygon class="cls-68" points="194.54 302.77 241.64 180.13 243.45 180.8 196.61 302.77 194.54 302.77"/>
                <polygon class="cls-63" points="192.47 302.77 239.84 179.44 241.64 180.1 194.54 302.77 192.47 302.77"/>
                <polygon class="cls-45" points="190.4 302.77 238.03 178.75 239.84 179.41 192.47 302.77 190.4 302.77"/>
                <polygon class="cls-44" points="188.33 302.77 236.23 178.05 238.03 178.72 190.4 302.77 188.33 302.77"/>
                <polygon class="cls-9" points="186.26 302.77 234.42 177.36 236.23 178.02 188.33 302.77 186.26 302.77"/>
                <polygon class="cls-55" points="184.18 302.77 232.61 176.67 234.42 177.33 186.26 302.77 184.18 302.77"/>
                <polygon class="cls-33" points="182.11 302.77 230.81 175.97 232.61 176.64 184.18 302.77 182.11 302.77"/>
                <polygon class="cls-43" points="180.04 302.77 229 175.28 230.81 175.94 182.11 302.77 180.04 302.77"/>
                <polygon class="cls-70" points="177.97 302.77 227.2 174.59 229 175.25 180.04 302.77 177.97 302.77"/>
                <polygon class="cls-70" points="175.9 302.77 225.39 173.89 227.2 174.56 177.97 302.77 175.9 302.77"/>
                <polygon class="cls-58" points="173.83 302.77 223.59 173.2 225.39 173.86 175.9 302.77 173.83 302.77"/>
                <polygon class="cls-1" points="171.75 302.77 221.78 172.51 223.59 173.17 173.83 302.77 171.75 302.77"/>
                <polygon class="cls-60" points="169.68 302.77 219.97 171.81 221.78 172.48 171.75 302.77 169.68 302.77"/>
                <polygon class="cls-19" points="167.61 302.77 218.17 171.12 219.97 171.79 169.68 302.77 167.61 302.77"/>
                <polygon class="cls-19" points="165.54 302.77 216.36 170.43 218.17 171.09 167.61 302.77 165.54 302.77"/>
                <polygon class="cls-51" points="163.47 302.77 214.56 169.73 216.36 170.4 165.54 302.77 163.47 302.77"/>
                <polygon class="cls-20" points="161.39 302.77 212.75 169.04 214.56 169.71 163.47 302.77 161.39 302.77"/>
                <polygon class="cls-62" points="159.32 302.77 210.95 168.35 212.75 169.01 161.39 302.77 159.32 302.77"/>
                <polygon class="cls-62" points="157.25 302.77 209.14 167.65 210.95 168.32 159.32 302.77 157.25 302.77"/>
                <polygon class="cls-3" points="155.18 302.77 207.33 166.96 209.14 167.63 157.25 302.77 155.18 302.77"/>
                <polygon class="cls-15" points="153.11 302.77 205.53 166.27 207.33 166.93 155.18 302.77 153.11 302.77"/>
                <polygon class="cls-14" points="151.03 302.77 203.72 165.58 205.53 166.24 153.11 302.77 151.03 302.77"/>
                <polygon class="cls-64" points="148.96 302.77 201.92 164.88 203.72 165.55 151.03 302.77 148.96 302.77"/>
                <polygon class="cls-61" points="146.89 302.77 200.11 164.19 201.92 164.85 148.96 302.77 146.89 302.77"/>
                <polygon class="cls-18" points="144.82 302.77 198.31 163.5 200.11 164.16 146.89 302.77 144.82 302.77"/>
                <polygon class="cls-65" points="142.75 302.77 196.5 162.8 198.31 163.47 144.82 302.77 142.75 302.77"/>
                <polygon class="cls-54" points="140.68 302.77 194.69 162.11 196.5 162.77 142.75 302.77 140.68 302.77"/>
                <polygon class="cls-7" points="138.6 302.77 192.89 161.42 194.69 162.08 140.68 302.77 138.6 302.77"/>
                <polygon class="cls-26" points="136.53 302.77 191.08 160.72 192.89 161.39 138.6 302.77 136.53 302.77"/>
                <polygon class="cls-41" points="134.46 302.77 189.28 160.03 191.08 160.69 136.53 302.77 134.46 302.77"/>
                <polygon class="cls-37" points="132.39 302.77 187.47 159.34 189.28 160 134.46 302.77 132.39 302.77"/>
                <polygon class="cls-21" points="130.32 302.77 185.67 158.64 187.47 159.31 132.39 302.77 130.32 302.77"/>
                <polygon class="cls-4" points="128.24 302.77 183.86 157.95 185.67 158.62 130.32 302.77 128.24 302.77"/>
                <polygon class="cls-47" points="126.17 302.77 182.05 157.26 183.86 157.92 128.24 302.77 126.17 302.77"/>
                <polygon class="cls-10" points="124.1 302.77 180.25 156.56 182.05 157.23 126.17 302.77 124.1 302.77"/>
                <polygon class="cls-8" points="122.03 302.77 178.44 155.87 180.25 156.54 124.1 302.77 122.03 302.77"/>
                <polygon class="cls-35" points="119.96 302.77 176.64 155.18 178.44 155.84 122.03 302.77 119.96 302.77"/>
                <polygon class="cls-50" points="119.33 302.77 118.07 302.35 174.83 154.51 176.64 155.16 119.96 302.77 119.33 302.77"/>
                <rect class="cls-17" x="66.36" y="227.16" width="158.38" height="1.93" transform="translate(-119.57 282.35) rotate(-69.02)"/>
                <rect class="cls-52" x="64.55" y="226.47" width="158.38" height="1.93" transform="translate(-120.1 280.1) rotate(-68.99)"/>
                <rect class="cls-38" x="62.75" y="225.77" width="158.38" height="1.93" transform="translate(-120.61 277.98) rotate(-69)"/>
                <rect class="cls-40" x="60.94" y="225.08" width="158.38" height="1.93" transform="translate(-121.13 275.83) rotate(-68.99)"/>
                <rect class="cls-42" x="59.13" y="224.39" width="158.38" height="1.93" transform="translate(-121.64 273.71) rotate(-69)"/>
                <rect class="cls-32" x="57.33" y="223.69" width="158.38" height="1.93" transform="translate(-122.13 271.69) rotate(-69.02)"/>
                <polygon class="cls-32" points="107.44 298.25 37.55 271.34 37.55 144.77 149.35 144.77 164.1 150.39 107.44 298.25"/>
              </g>
            </g>
            <g class="cls-46">
              <g class="cls-56">
                <polygon class="cls-22" points="260.55 265.34 244.67 258.77 260.55 258.77 260.55 265.34"/>
                <polygon class="cls-22" points="260.55 267.4 239.55 258.77 244.67 258.77 260.55 265.34 260.55 267.4"/>
                <polygon class="cls-67" points="260.55 269.47 234.44 258.77 239.55 258.77 260.55 267.4 260.55 269.47"/>
                <polygon class="cls-49" points="260.55 271.54 229.32 258.77 234.44 258.77 260.55 269.47 260.55 271.54"/>
                <path class="cls-53" d="M260.55,273.6l-36.35-14.83c3-2.28,33.05,11.8,36.35,12.76v2.07Z"/>
                <path class="cls-31" d="M260.55,275.67l-41.46-16.9c2.25-2.6,38.54,14.03,41.46,14.83v2.07Z"/>
                <path class="cls-39" d="M260.55,277.74l-46.58-18.96c2.55-2.61,43.56,16.14,46.58,16.9v2.07Z"/>
                <path class="cls-2" d="M260.55,279.8l-51.69-21.03c1.59-3,49.2,18.42,51.69,18.96v2.07Z"/>
                <path class="cls-57" d="M260.55,281.87l-56.81-23.1c1.73-3.06,54.27,20.54,56.81,21.03v2.07Z"/>
                <path class="cls-23" d="M260.55,283.94l-61.93-25.17c2.25-3.15,58.68,22.52,61.93,23.1v2.07Z"/>
                <polygon class="cls-25" points="260.55 286.01 193.51 258.77 198.62 258.77 260.55 283.94 260.55 286.01"/>
                <polygon class="cls-34" points="260.55 288.07 188.39 258.77 193.51 258.77 260.55 286.01 260.55 288.07"/>
                <polygon class="cls-13" points="260.55 290.14 183.28 258.77 188.39 258.77 260.55 288.07 260.55 290.14"/>
                <polygon class="cls-27" points="260.55 292.21 178.16 258.77 183.28 258.77 260.55 290.14 260.55 292.21"/>
                <polygon class="cls-48" points="260.55 294.28 173.04 258.77 178.16 258.77 260.55 292.21 260.55 294.28"/>
                <polygon class="cls-11" points="260.55 296.34 167.93 258.77 173.04 258.77 260.55 294.28 260.55 296.34"/>
                <polygon class="cls-12" points="260.55 298.41 162.81 258.77 167.93 258.77 260.55 296.34 260.55 298.41"/>
                <polygon class="cls-59" points="260.55 300.48 157.69 258.77 162.81 258.77 260.55 298.41 260.55 300.48"/>
                <polygon class="cls-68" points="260.55 302.54 152.58 258.77 157.69 258.77 260.55 300.48 260.55 302.54"/>
                <polygon class="cls-63" points="260.55 304.61 147.46 258.77 152.58 258.77 260.55 302.54 260.55 304.61"/>
                <polygon class="cls-45" points="260.55 306.68 142.35 258.77 147.46 258.77 260.55 304.61 260.55 306.68"/>
                <polygon class="cls-44" points="260.55 308.74 137.23 258.77 142.35 258.77 260.55 306.68 260.55 308.74"/>
                <polygon class="cls-9" points="260.55 310.81 132.11 258.77 137.23 258.77 260.55 308.74 260.55 310.81"/>
                <path class="cls-55" d="M260.55,312.88l-130.2-52.68.57-1.43c1.26-.88,128.44,52.03,129.63,52.04v2.07Z"/>
                <polygon class="cls-33" points="260.55 314.95 129.63 262.04 130.34 260.26 260.55 312.88 260.55 314.95"/>
                <polygon class="cls-43" points="260.55 317.01 128.91 263.82 129.62 262.04 260.55 314.95 260.55 317.01"/>
                <polygon class="cls-70" points="260.55 319.08 128.2 265.59 128.9 263.82 260.55 317.01 260.55 319.08"/>
                <polygon class="cls-70" points="260.55 321.15 127.48 267.37 128.18 265.59 260.55 319.08 260.55 321.15"/>
                <polygon class="cls-58" points="260.55 323.21 126.76 269.15 127.47 267.37 260.55 321.15 260.55 323.21"/>
                <polygon class="cls-1" points="260.55 325.28 126.04 270.93 126.75 269.15 260.55 323.21 260.55 325.28"/>
                <polygon class="cls-60" points="260.55 327.35 125.32 272.7 126.03 270.93 260.55 325.28 260.55 327.35"/>
                <polygon class="cls-19" points="260.55 329.41 124.61 274.48 125.31 272.7 260.55 327.35 260.55 329.41"/>
                <polygon class="cls-19" points="260.55 331.48 123.89 276.26 124.59 274.48 260.55 329.41 260.55 331.48"/>
                <polygon class="cls-51" points="260.55 333.55 123.17 278.03 123.88 276.26 260.55 331.48 260.55 333.55"/>
                <polygon class="cls-20" points="260.55 335.62 122.45 279.81 123.16 278.03 260.55 333.55 260.55 335.62"/>
                <polygon class="cls-62" points="260.55 337.68 121.73 281.59 122.44 279.81 260.55 335.62 260.55 337.68"/>
                <polygon class="cls-62" points="260.55 339.75 121.02 283.36 121.72 281.59 260.55 337.68 260.55 339.75"/>
                <polygon class="cls-3" points="260.55 341.82 120.3 285.14 121 283.36 260.55 339.75 260.55 341.82"/>
                <polygon class="cls-15" points="260.55 343.88 119.58 286.92 120.29 285.14 260.55 341.82 260.55 343.88"/>
                <polygon class="cls-14" points="260.55 345.95 118.86 288.7 119.57 286.92 260.55 343.88 260.55 345.95"/>
                <polygon class="cls-64" points="260.55 348.02 118.14 290.47 118.85 288.7 260.55 345.95 260.55 348.02"/>
                <polygon class="cls-61" points="260.55 350.08 117.43 292.25 118.13 290.47 260.55 348.02 260.55 350.08"/>
                <polygon class="cls-18" points="260.55 352.15 116.71 294.03 117.41 292.25 260.55 350.08 260.55 352.15"/>
                <polygon class="cls-65" points="260.55 354.22 115.99 295.8 116.7 294.03 260.55 352.15 260.55 354.22"/>
                <polygon class="cls-54" points="260.55 356.29 115.27 297.58 115.98 295.8 260.55 354.22 260.55 356.29"/>
                <polygon class="cls-7" points="260.55 358.35 114.55 299.36 115.26 297.58 260.55 356.29 260.55 358.35"/>
                <polygon class="cls-26" points="260.55 360.42 113.84 301.14 114.54 299.36 260.55 358.35 260.55 360.42"/>
                <polygon class="cls-41" points="260.55 362.49 113.12 302.91 113.83 301.14 260.55 360.42 260.55 362.49"/>
                <polygon class="cls-37" points="260.55 364.55 112.4 304.69 113.11 302.91 260.55 362.49 260.55 364.55"/>
                <polygon class="cls-21" points="260.55 365.77 260.28 366.5 111.69 306.47 112.39 304.69 260.55 364.55 260.55 365.77"/>
                <rect class="cls-4" x="184.69" y="257.24" width="1.92" height="160.27" transform="translate(-196.7 383.18) rotate(-68.01)"/>
                <rect class="cls-47" x="183.97" y="259.02" width="1.92" height="160.27" transform="translate(-198.81 383.52) rotate(-67.99)"/>
                <rect class="cls-10" x="183.25" y="260.79" width="1.92" height="160.27" transform="translate(-200.9 383.99) rotate(-68)"/>
                <rect class="cls-8" x="182.53" y="262.57" width="1.92" height="160.27" transform="translate(-203 384.43) rotate(-68)"/>
                <rect class="cls-35" x="181.81" y="264.35" width="1.92" height="160.27" transform="translate(-205.09 384.96) rotate(-68.01)"/>
                <rect class="cls-50" x="181.1" y="266.12" width="1.92" height="160.27" transform="translate(-207.19 385.32) rotate(-68)"/>
                <rect class="cls-17" x="180.38" y="267.9" width="1.92" height="160.27" transform="translate(-209.29 385.77) rotate(-68)"/>
                <rect class="cls-52" x="179.66" y="269.68" width="1.92" height="160.27" transform="translate(-211.38 386.22) rotate(-68)"/>
                <rect class="cls-38" x="178.94" y="271.45" width="1.92" height="160.27" transform="translate(-213.47 386.74) rotate(-68.01)"/>
                <rect class="cls-40" x="178.23" y="273.23" width="1.92" height="160.27" transform="translate(-215.58 387.1) rotate(-68)"/>
                <rect class="cls-42" x="177.51" y="275.01" width="1.92" height="160.27" transform="translate(-217.67 387.56) rotate(-68)"/>
                <rect class="cls-32" x="176.79" y="276.79" width="1.92" height="160.27" transform="translate(-219.76 388.08) rotate(-68.01)"/>
                <polygon class="cls-32" points="251.69 387.85 224.65 454.77 89.55 454.77 89.55 360.29 102.89 327.8 251.69 387.85"/>
              </g>
            </g>
            <g class="cls-46">
              <g class="cls-36">
                <polygon class="cls-32" points="273.87 454.77 245.82 388.67 392.7 326.33 406.55 358.88 406.55 454.77 273.87 454.77"/>
                <rect class="cls-32" x="239.1" y="355.65" width="159.53" height="1.92" transform="translate(-113.97 152.9) rotate(-22.99)"/>
                <rect class="cls-42" x="238.35" y="353.88" width="159.53" height="1.92" transform="translate(-113.38 152.55) rotate(-23.01)"/>
                <rect class="cls-40" x="237.6" y="352.11" width="159.53" height="1.92" transform="translate(-112.71 152.02) rotate(-22.99)"/>
                <rect class="cls-38" x="236.85" y="350.34" width="159.53" height="1.92" transform="translate(-112.11 151.68) rotate(-23.01)"/>
                <rect class="cls-52" x="236.1" y="348.57" width="159.53" height="1.92" transform="translate(-111.45 151.16) rotate(-22.99)"/>
                <rect class="cls-17" x="235.35" y="346.81" width="159.53" height="1.92" transform="translate(-110.85 150.81) rotate(-23.01)"/>
                <rect class="cls-50" x="234.6" y="345.04" width="159.53" height="1.92" transform="translate(-110.19 150.3) rotate(-22.99)"/>
                <rect class="cls-35" x="233.85" y="343.27" width="159.53" height="1.92" transform="translate(-109.58 149.92) rotate(-23)"/>
                <rect class="cls-8" x="233.1" y="341.5" width="159.53" height="1.92" transform="translate(-108.92 149.42) rotate(-22.99)"/>
                <rect class="cls-10" x="232.35" y="339.73" width="159.52" height="1.92" transform="translate(-108.33 149.08) rotate(-23.01)"/>
                <rect class="cls-47" x="231.6" y="337.97" width="159.53" height="1.92" transform="translate(-107.66 148.56) rotate(-22.99)"/>
                <path class="cls-4" d="M237.8,369.21c-.11-.44-.32-1.43-.25-1.88l146.35-62.22.75,1.77-146.84,62.33Z"/>
                <polygon class="cls-21" points="237.55 365.24 383.15 303.34 384.02 305.11 237.55 367.33 237.55 365.24"/>
                <polygon class="cls-37" points="237.55 363.16 382.4 301.57 383.27 303.34 237.55 365.24 237.55 363.16"/>
                <polygon class="cls-41" points="237.55 361.07 381.65 299.8 382.52 301.57 237.55 363.16 237.55 361.07"/>
                <polygon class="cls-26" points="237.55 358.98 380.89 298.04 381.77 299.8 237.55 361.07 237.55 358.98"/>
                <polygon class="cls-7" points="237.55 356.9 380.14 296.27 381.02 298.04 237.55 358.98 237.55 356.9"/>
                <polygon class="cls-54" points="237.55 354.81 379.39 294.5 380.26 296.27 237.55 356.9 237.55 354.81"/>
                <polygon class="cls-65" points="237.55 352.72 378.64 292.73 379.51 294.5 237.55 354.81 237.55 352.72"/>
                <polygon class="cls-18" points="237.55 350.64 377.89 290.97 378.76 292.73 237.55 352.72 237.55 350.64"/>
                <polygon class="cls-61" points="237.55 348.55 377.14 289.2 378.01 290.97 237.55 350.64 237.55 348.55"/>
                <polygon class="cls-64" points="237.55 346.47 376.39 287.43 377.26 289.2 237.55 348.55 237.55 346.47"/>
                <polygon class="cls-14" points="237.55 344.38 375.64 285.66 376.51 287.43 237.55 346.47 237.55 344.38"/>
                <polygon class="cls-15" points="237.55 342.29 374.89 283.89 375.76 285.66 237.55 344.38 237.55 342.29"/>
                <polygon class="cls-3" points="237.55 340.2 374.14 282.12 375.01 283.89 237.55 342.29 237.55 340.2"/>
                <polygon class="cls-62" points="237.55 338.12 373.39 280.36 374.26 282.12 237.55 340.2 237.55 338.12"/>
                <polygon class="cls-62" points="237.55 336.03 372.64 278.59 373.51 280.36 237.55 338.12 237.55 336.03"/>
                <polygon class="cls-20" points="237.55 333.95 371.89 276.82 372.76 278.59 237.55 336.03 237.55 333.95"/>
                <polygon class="cls-51" points="237.55 331.86 371.14 275.05 372.01 276.82 237.55 333.95 237.55 331.86"/>
                <polygon class="cls-19" points="237.55 329.77 370.39 273.28 371.26 275.05 237.55 331.86 237.55 329.77"/>
                <polygon class="cls-19" points="237.55 327.68 369.64 271.52 370.51 273.28 237.55 329.77 237.55 327.68"/>
                <polygon class="cls-60" points="237.55 325.6 368.89 269.75 369.76 271.52 237.55 327.68 237.55 325.6"/>
                <polygon class="cls-1" points="237.55 323.51 368.14 267.98 369.01 269.75 237.55 325.6 237.55 323.51"/>
                <polygon class="cls-58" points="237.55 321.43 367.39 266.21 368.26 267.98 237.55 323.51 237.55 321.43"/>
                <polygon class="cls-70" points="237.55 319.34 366.64 264.44 367.51 266.21 237.55 321.43 237.55 319.34"/>
                <polygon class="cls-70" points="237.55 317.25 365.88 262.68 366.76 264.44 237.55 319.34 237.55 317.25"/>
                <polygon class="cls-43" points="237.55 315.17 365.13 260.91 366 262.68 237.55 317.25 237.55 315.17"/>
                <polygon class="cls-33" points="237.55 313.08 364.38 259.14 365.25 260.91 237.55 315.17 237.55 313.08"/>
                <polygon class="cls-55" points="237.55 310.99 359.93 258.77 364.02 258.77 364.38 259.11 237.55 313.08 237.55 310.99"/>
                <polygon class="cls-9" points="237.55 308.91 355.01 258.77 359.93 258.77 237.55 310.99 237.55 308.91"/>
                <polygon class="cls-44" points="237.55 306.82 350.09 258.77 355.01 258.77 237.55 308.91 237.55 306.82"/>
                <polygon class="cls-45" points="237.55 304.73 345.18 258.77 350.09 258.77 237.55 306.82 237.55 304.73"/>
                <polygon class="cls-63" points="237.55 302.65 340.26 258.77 345.18 258.77 237.55 304.73 237.55 302.65"/>
                <polygon class="cls-68" points="237.55 300.56 335.35 258.77 340.26 258.77 237.55 302.65 237.55 300.56"/>
                <polygon class="cls-59" points="237.55 298.47 330.43 258.77 335.35 258.77 237.55 300.56 237.55 298.47"/>
                <polygon class="cls-12" points="237.55 296.39 325.52 258.77 330.43 258.77 237.55 298.47 237.55 296.39"/>
                <polygon class="cls-11" points="237.55 294.3 320.6 258.77 325.52 258.77 237.55 296.39 237.55 294.3"/>
                <polygon class="cls-48" points="237.55 292.21 315.68 258.77 320.6 258.77 237.55 294.3 237.55 292.21"/>
                <polygon class="cls-27" points="237.55 290.13 310.77 258.77 315.68 258.77 237.55 292.21 237.55 290.13"/>
                <polygon class="cls-13" points="237.55 288.04 305.85 258.77 310.77 258.77 237.55 290.13 237.55 288.04"/>
                <polygon class="cls-34" points="237.55 285.95 300.94 258.77 305.85 258.77 237.55 288.04 237.55 285.95"/>
                <path class="cls-25" d="M237.55,283.87c1.55-.15,63.18-28.77,63.39-25.09l-63.39,27.18v-2.09Z"/>
                <path class="cls-23" d="M237.55,281.78c1.44-.18,58.52-26.68,58.47-23l-58.47,25.09v-2.09Z"/>
                <path class="cls-57" d="M237.55,279.69c1.42-.24,53.75-24.53,53.55-20.92l-53.55,23v-2.09Z"/>
                <path class="cls-2" d="M237.55,277.61c2.73-.66,46.61-21.73,48.64-18.83l-48.64,20.92v-2.09Z"/>
                <path class="cls-39" d="M237.55,275.52c3.15-.85,40.91-19.28,43.72-16.75l-43.72,18.83v-2.09Z"/>
                <path class="cls-31" d="M237.55,273.43c3.04-.89,36.28-17.18,38.81-14.66l-38.81,16.75v-2.09Z"/>
                <polygon class="cls-53" points="237.55 271.35 266.53 258.77 271.44 258.77 237.55 273.43 237.55 271.35"/>
                <polygon class="cls-49" points="237.55 269.26 261.61 258.77 266.53 258.77 237.55 271.35 237.55 269.26"/>
                <polygon class="cls-67" points="237.55 267.17 256.69 258.77 261.61 258.77 237.55 269.26 237.55 267.17"/>
                <polygon class="cls-22" points="237.55 265.09 251.78 258.77 256.69 258.77 237.55 267.17 237.55 265.09"/>
                <polygon class="cls-22" points="251.78 258.77 237.55 265.09 237.55 258.77 251.78 258.77"/>
              </g>
            </g>
            <g class="cls-46">
              <g class="cls-6">
                <rect class="cls-22" x="247.55" y="144.77" width="1" height="158"/>
                <rect class="cls-22" x="248.55" y="144.77" width="2" height="158"/>
                <rect class="cls-67" x="250.55" y="144.77" width="2" height="158"/>
                <rect class="cls-49" x="252.55" y="144.77" width="1" height="158"/>
                <rect class="cls-53" x="253.55" y="144.77" width="2" height="158"/>
                <rect class="cls-31" x="255.55" y="144.77" width="2" height="158"/>
                <rect class="cls-39" x="257.55" y="144.77" width="2" height="158"/>
                <rect class="cls-2" x="259.55" y="144.77" width="2" height="158"/>
                <rect class="cls-57" x="261.55" y="144.77" width="2" height="158"/>
                <rect class="cls-23" x="263.55" y="144.77" width="2" height="158"/>
                <rect class="cls-25" x="265.55" y="144.77" width="2" height="158"/>
                <rect class="cls-34" x="267.55" y="144.77" width="2" height="158"/>
                <rect class="cls-13" x="269.55" y="144.77" width="2" height="158"/>
                <rect class="cls-27" x="271.55" y="144.77" width="1" height="158"/>
                <rect class="cls-48" x="272.55" y="144.77" width="2" height="158"/>
                <rect class="cls-11" x="274.55" y="144.77" width="2" height="158"/>
                <rect class="cls-12" x="276.55" y="144.77" width="2" height="158"/>
                <rect class="cls-59" x="278.55" y="144.77" width="2" height="158"/>
                <rect class="cls-68" x="280.55" y="144.77" width="2" height="158"/>
                <rect class="cls-63" x="282.55" y="144.77" width="2" height="158"/>
                <rect class="cls-45" x="284.55" y="144.77" width="2" height="158"/>
                <rect class="cls-44" x="286.55" y="144.77" width="2" height="158"/>
                <rect class="cls-9" x="288.55" y="144.77" width="1" height="158"/>
                <rect class="cls-55" x="289.55" y="144.77" width="2" height="158"/>
                <rect class="cls-33" x="291.55" y="144.77" width="2" height="158"/>
                <rect class="cls-43" x="293.55" y="144.77" width="2" height="158"/>
                <rect class="cls-70" x="295.55" y="144.77" width="2" height="158"/>
                <rect class="cls-70" x="297.55" y="144.77" width="2" height="158"/>
                <rect class="cls-58" x="299.55" y="144.77" width="2" height="158"/>
                <rect class="cls-1" x="301.55" y="144.77" width="2" height="158"/>
                <rect class="cls-60" x="303.55" y="144.77" width="2" height="158"/>
                <rect class="cls-19" x="305.55" y="144.77" width="2" height="158"/>
                <rect class="cls-19" x="307.55" y="144.77" width="1" height="158"/>
                <rect class="cls-51" x="308.55" y="144.77" width="2" height="158"/>
                <rect class="cls-20" x="310.55" y="144.77" width="2" height="158"/>
                <rect class="cls-62" x="312.55" y="144.77" width="2" height="158"/>
                <rect class="cls-62" x="314.55" y="144.77" width="2" height="158"/>
                <rect class="cls-3" x="316.55" y="144.77" width="2" height="158"/>
                <rect class="cls-15" x="318.55" y="144.77" width="2" height="158"/>
                <rect class="cls-14" x="320.55" y="144.77" width="2" height="158"/>
                <rect class="cls-64" x="322.55" y="144.77" width="2" height="158"/>
                <rect class="cls-61" x="324.55" y="144.77" width="1" height="158"/>
                <rect class="cls-18" x="325.55" y="144.77" width="2" height="158"/>
                <rect class="cls-65" x="327.55" y="144.77" width="2" height="158"/>
                <rect class="cls-54" x="329.55" y="144.77" width="2" height="158"/>
                <rect class="cls-7" x="331.55" y="144.77" width="2" height="158"/>
                <rect class="cls-26" x="333.55" y="144.77" width="2" height="158"/>
                <rect class="cls-41" x="335.55" y="144.77" width="2" height="158"/>
                <rect class="cls-37" x="337.55" y="144.77" width="2" height="158"/>
                <rect class="cls-21" x="339.55" y="144.77" width="2" height="158"/>
                <rect class="cls-4" x="341.55" y="144.77" width="2" height="158"/>
                <rect class="cls-47" x="343.55" y="144.77" width="1" height="158"/>
                <rect class="cls-10" x="344.55" y="144.77" width="2" height="158"/>
                <rect class="cls-8" x="346.55" y="144.77" width="2" height="158"/>
                <rect class="cls-35" x="348.55" y="144.77" width="2" height="158"/>
                <rect class="cls-50" x="350.55" y="144.77" width="2" height="158"/>
                <rect class="cls-17" x="352.55" y="144.77" width="2" height="158"/>
                <rect class="cls-52" x="354.55" y="144.77" width="2" height="158"/>
                <rect class="cls-38" x="356.55" y="144.77" width="2" height="158"/>
                <rect class="cls-40" x="358.55" y="144.77" width="2" height="158"/>
                <rect class="cls-42" x="360.55" y="144.77" width="1" height="158"/>
                <rect class="cls-32" x="361.55" y="144.77" width="2" height="158"/>
                <rect class="cls-32" x="363.55" y="144.77" width="96" height="158"/>
              </g>
            </g>
            <g>
              <g>
                <path class="cls-29" d="M264.99,312.31c-1.02.33-2.05,0-2.29-.74l-33.21-102.2c-.24-.74.4-1.62,1.42-1.95,1.03-.33,2.05,0,2.3.74l33.2,102.2c.24.74-.4,1.61-1.42,1.95Z"/>
                <g>
                  <path class="cls-16" d="M224.47,209.53c-2.92-8.55,10.58-12.93,13.24-4.3,2.92,8.55-10.58,12.94-13.24,4.3Z"/>
                  <path class="cls-16" d="M258.35,314.39c-2.92-8.55,10.58-12.93,13.24-4.3,2.92,8.55-10.58,12.94-13.24,4.3Z"/>
                </g>
              </g>
              <g>
                <path class="cls-29" d="M288.97,296.79c-.72.8-1.78,1.03-2.36.51l-79.85-71.91c-.58-.52-.47-1.59.25-2.4.72-.8,1.78-1.03,2.36-.51l79.86,71.9c.58.52.46,1.6-.26,2.4Z"/>
                <g>
                  <path class="cls-16" d="M202.49,228.05c-6.8-5.94,2.7-16.49,9.32-10.35,6.8,5.95-2.69,16.49-9.32,10.35Z"/>
                  <path class="cls-16" d="M284.26,301.92c-6.8-5.94,2.7-16.49,9.32-10.35,6.8,5.94-2.7,16.5-9.32,10.35Z"/>
                </g>
              </g>
              <g>
                <path class="cls-29" d="M301.97,271.37c-.22,1.05-1.02,1.78-1.79,1.62l-105.11-22.34c-.76-.16-1.2-1.15-.98-2.21.22-1.06,1.03-1.78,1.79-1.62l105.11,22.34c.76.16,1.2,1.15.97,2.2Z"/>
                <g>
                  <path class="cls-16" d="M192.71,255.07c-8.87-1.75-5.91-15.63,2.9-13.62,8.86,1.75,5.91,15.63-2.9,13.62Z"/>
                  <path class="cls-16" d="M300.46,278.17c-8.86-1.75-5.91-15.63,2.89-13.62,8.87,1.75,5.92,15.63-2.89,13.62Z"/>
                </g>
              </g>
              <g>
                <path class="cls-29" d="M300.53,242.85c.33,1.03,0,2.06-.74,2.3l-102.2,33.21c-.74.24-1.61-.4-1.95-1.42-.33-1.03,0-2.05.74-2.29l102.2-33.21c.74-.24,1.61.39,1.95,1.42Z"/>
                <g>
                  <path class="cls-16" d="M197.76,283.37c-8.56,2.92-12.94-10.57-4.3-13.24,8.55-2.91,12.93,10.58,4.3,13.24Z"/>
                  <path class="cls-16" d="M302.62,249.49c-8.55,2.92-12.94-10.58-4.31-13.24,8.55-2.92,12.94,10.58,4.31,13.24Z"/>
                </g>
              </g>
              <g>
                <path class="cls-29" d="M285.02,218.88c.8.72,1.03,1.78.5,2.36l-71.9,79.85c-.52.58-1.6.47-2.4-.26-.8-.72-1.03-1.78-.51-2.36l71.9-79.86c.52-.58,1.6-.47,2.4.26Z"/>
                <g>
                  <path class="cls-16" d="M216.27,305.36c-5.95,6.8-16.49-2.7-10.35-9.32,5.94-6.8,16.49,2.69,10.35,9.32Z"/>
                  <path class="cls-16" d="M290.15,223.59c-5.95,6.8-16.49-2.7-10.35-9.32,5.95-6.81,16.49,2.69,10.35,9.32Z"/>
                </g>
              </g>
              <g>
                <path class="cls-29" d="M259.6,205.87c1.06.22,1.78,1.03,1.62,1.79l-22.34,105.1c-.16.77-1.15,1.2-2.2.98-1.06-.22-1.78-1.02-1.62-1.79l22.34-105.11c.16-.76,1.15-1.2,2.21-.97Z"/>
                <g>
                  <path class="cls-16" d="M243.3,315.13c-1.75,8.87-15.63,5.91-13.62-2.9,1.75-8.86,15.63-5.91,13.62,2.9Z"/>
                  <path class="cls-16" d="M266.39,207.38c-1.75,8.87-15.63,5.92-13.62-2.89,1.75-8.86,15.63-5.91,13.62,2.89Z"/>
                </g>
              </g>
            </g>
          </g>
        </g>
      </g>
    </g>
  </g>
</svg>